<svg width="1141" height="716" viewBox="0 0 1141 716" fill="none" xmlns="http://www.w3.org/2000/svg">
<g filter="url(#filter0_d_1445_915)">
<rect x="288.262" y="545.645" width="279.509" height="91.0719" rx="45.5359" fill="white" shape-rendering="crispEdges"/>
<path d="M369.149 571.866H370.122V581.372H369.149L365.856 574.635C363.561 573.538 361.066 572.989 358.371 572.989C355.677 572.989 353.556 573.662 352.009 575.01C350.462 576.357 349.689 578.003 349.689 579.949C349.689 581.895 350.238 583.343 351.336 584.291C352.433 585.239 354.03 585.987 356.126 586.536L364.434 588.781C367.128 589.43 369.124 590.578 370.421 592.224C371.719 593.871 372.367 596.391 372.367 599.784C372.367 603.127 371.295 605.796 369.149 607.792C367.053 609.738 364.384 610.711 361.141 610.711C357.947 610.711 354.978 609.863 352.234 608.167L348.342 610.187H347.369V598.362H348.342L352.309 606.894C354.853 608.69 357.623 609.589 360.617 609.589C363.61 609.589 365.981 608.89 367.727 607.493C369.523 606.096 370.421 604.075 370.421 601.43C370.421 599.534 369.848 598.062 368.7 597.014C367.602 595.917 365.756 595.043 363.161 594.395L355.527 592.449C352.883 591.75 350.862 590.553 349.465 588.856C348.117 587.11 347.444 585.089 347.444 582.794C347.444 579.5 348.392 576.856 350.288 574.86C352.234 572.864 354.754 571.866 357.847 571.866C360.941 571.866 363.586 572.365 365.781 573.363L369.149 571.866ZM381.162 585.862V603.526C381.162 606.869 382.459 608.541 385.054 608.541C387.699 608.541 390.243 606.919 392.688 603.676V587.21L389.395 586.76V585.862H397.254V608.391L400.547 608.765V609.738H392.688V605.322C390.243 608.566 387.25 610.187 383.707 610.187C381.461 610.187 379.69 609.638 378.393 608.541C377.145 607.443 376.522 605.796 376.522 603.601V587.21L373.228 586.76V585.862H381.162ZM417.183 592.673C417.982 592.124 418.381 591.326 418.381 590.278C418.381 589.181 417.932 588.282 417.033 587.584C416.135 586.835 414.938 586.461 413.441 586.461C411.245 586.461 409.549 587.259 408.351 588.856C407.154 590.403 406.555 592.623 406.555 595.517V600.083C406.555 602.827 407.129 605.048 408.276 606.744C409.424 608.391 411.096 609.214 413.291 609.214C415.487 609.214 417.358 608.616 418.905 607.418C420.451 606.221 421.4 604.649 421.749 602.703H422.797C422.397 604.998 421.35 606.819 419.653 608.167C417.957 609.514 415.886 610.187 413.441 610.187C410.048 610.187 407.204 609.065 404.908 606.819C402.613 604.524 401.465 601.505 401.465 597.763C401.465 593.971 402.638 590.977 404.983 588.781C407.378 586.536 410.048 585.413 412.992 585.413C415.986 585.413 418.381 586.087 420.177 587.434C422.023 588.781 422.946 590.453 422.946 592.449C422.946 593.497 422.672 594.295 422.123 594.844C421.624 595.343 420.95 595.592 420.102 595.592C419.254 595.592 418.555 595.318 418.006 594.769C417.458 594.22 417.183 593.522 417.183 592.673ZM440.403 592.673C441.201 592.124 441.6 591.326 441.6 590.278C441.6 589.181 441.151 588.282 440.253 587.584C439.355 586.835 438.158 586.461 436.661 586.461C434.465 586.461 432.769 587.259 431.571 588.856C430.374 590.403 429.775 592.623 429.775 595.517V600.083C429.775 602.827 430.349 605.048 431.496 606.744C432.644 608.391 434.315 609.214 436.511 609.214C438.706 609.214 440.578 608.616 442.124 607.418C443.671 606.221 444.619 604.649 444.969 602.703H446.016C445.617 604.998 444.569 606.819 442.873 608.167C441.176 609.514 439.106 610.187 436.661 610.187C433.268 610.187 430.423 609.065 428.128 606.819C425.833 604.524 424.685 601.505 424.685 597.763C424.685 593.971 425.858 590.977 428.203 588.781C430.598 586.536 433.268 585.413 436.212 585.413C439.205 585.413 441.6 586.087 443.397 587.434C445.243 588.781 446.166 590.453 446.166 592.449C446.166 593.497 445.892 594.295 445.343 594.844C444.844 595.343 444.17 595.592 443.322 595.592C442.474 595.592 441.775 595.318 441.226 594.769C440.677 594.22 440.403 593.522 440.403 592.673ZM465.718 607.343C467.315 606.146 468.313 604.599 468.712 602.703H469.835C469.386 604.998 468.288 606.819 466.542 608.167C464.795 609.514 462.65 610.187 460.105 610.187C456.612 610.187 453.693 609.04 451.348 606.744C449.053 604.499 447.905 601.555 447.905 597.913C447.905 594.22 449.028 591.226 451.273 588.931C453.518 586.586 456.238 585.413 459.431 585.413C462.675 585.413 465.219 586.386 467.066 588.332C468.962 590.228 469.935 592.623 469.985 595.517H452.995V600.083C452.995 602.827 453.593 605.023 454.791 606.67C456.088 608.366 457.835 609.214 460.03 609.214C462.226 609.214 464.122 608.591 465.718 607.343ZM459.731 586.461C457.685 586.461 456.088 587.185 454.941 588.632C453.793 590.029 453.169 591.95 453.069 594.395H464.895C464.895 589.106 463.174 586.461 459.731 586.461ZM476.467 605.622C476.467 608.067 478.114 609.289 481.407 609.289C483.104 609.289 484.576 608.865 485.823 608.017C487.07 607.169 487.694 606.146 487.694 604.948C487.694 603.751 487.27 602.877 486.422 602.329C485.573 601.73 484.176 601.106 482.23 600.457L476.243 598.586C473.498 597.788 472.126 595.742 472.126 592.449C472.126 590.453 472.924 588.781 474.521 587.434C476.118 586.087 478.189 585.413 480.733 585.413C483.278 585.413 485.274 585.862 486.721 586.76C488.168 587.609 488.892 588.756 488.892 590.203C488.892 590.952 488.642 591.601 488.143 592.149C487.644 592.698 487.045 592.973 486.347 592.973C485.648 592.973 485.074 592.798 484.625 592.449C484.226 592.1 484.027 591.625 484.027 591.027C484.625 590.578 484.95 589.979 485 589.23C485 587.284 483.603 586.311 480.808 586.311C478.812 586.311 477.216 586.711 476.018 587.509C474.87 588.307 474.297 589.23 474.297 590.278C474.297 591.326 474.496 592.075 474.895 592.524C475.344 592.973 476.168 593.397 477.365 593.796L484.7 596.041C486.397 596.59 487.644 597.414 488.443 598.511C489.291 599.609 489.715 601.106 489.715 603.002C489.715 604.848 488.991 606.52 487.544 608.017C486.147 609.464 484.002 610.187 481.108 610.187C474.87 610.187 471.752 608.491 471.752 605.098C471.752 604.15 472.026 603.376 472.575 602.778C473.124 602.129 473.773 601.805 474.521 601.805C475.968 601.805 476.891 602.453 477.29 603.751C476.742 604.349 476.467 604.973 476.467 605.622ZM496.437 605.622C496.437 608.067 498.084 609.289 501.377 609.289C503.074 609.289 504.546 608.865 505.793 608.017C507.04 607.169 507.664 606.146 507.664 604.948C507.664 603.751 507.24 602.877 506.392 602.329C505.544 601.73 504.146 601.106 502.2 600.457L496.213 598.586C493.468 597.788 492.096 595.742 492.096 592.449C492.096 590.453 492.895 588.781 494.491 587.434C496.088 586.087 498.159 585.413 500.704 585.413C503.248 585.413 505.244 585.862 506.691 586.76C508.138 587.609 508.862 588.756 508.862 590.203C508.862 590.952 508.612 591.601 508.113 592.149C507.614 592.698 507.016 592.973 506.317 592.973C505.618 592.973 505.045 592.798 504.596 592.449C504.196 592.1 503.997 591.625 503.997 591.027C504.596 590.578 504.92 589.979 504.97 589.23C504.97 587.284 503.573 586.311 500.778 586.311C498.782 586.311 497.186 586.711 495.988 587.509C494.841 588.307 494.267 589.23 494.267 590.278C494.267 591.326 494.466 592.075 494.865 592.524C495.315 592.973 496.138 593.397 497.335 593.796L504.67 596.041C506.367 596.59 507.614 597.414 508.413 598.511C509.261 599.609 509.685 601.106 509.685 603.002C509.685 604.848 508.962 606.52 507.515 608.017C506.117 609.464 503.972 610.187 501.078 610.187C494.841 610.187 491.722 608.491 491.722 605.098C491.722 604.15 491.996 603.376 492.545 602.778C493.094 602.129 493.743 601.805 494.491 601.805C495.938 601.805 496.861 602.453 497.261 603.751C496.712 604.349 496.437 604.973 496.437 605.622Z" fill="black"/>
</g>
<g filter="url(#filter1_d_1445_915)">
<rect x="654.125" y="340.777" width="374.076" height="77.2625" rx="38.6313" fill="white" shape-rendering="crispEdges"/>
<path d="M705.284 389.914V390.887H695.404V389.914L699.895 388.043L713.292 353.015H713.966L726.615 389.24L730.881 389.914V390.887H717.334V389.914L721.076 389.315L717.109 378.387H704.909L701.167 388.043L705.284 389.914ZM711.271 361.173L705.284 377.414H716.81L711.271 361.173ZM748.763 390.887V386.097C747.117 389.589 744.572 391.336 741.129 391.336C737.736 391.336 735.017 390.213 732.971 387.968C730.975 385.672 729.977 382.654 729.977 378.911C729.977 375.169 730.975 372.175 732.971 369.93C735.017 367.684 737.736 366.562 741.129 366.562C744.572 366.562 747.117 368.333 748.763 371.876V355.335L745.545 354.961V353.988H753.404V389.539L756.622 389.914V390.887H748.763ZM735.067 376.666V381.232C735.067 387.219 737.187 390.213 741.428 390.213C743.474 390.213 745.196 389.365 746.593 387.668C747.99 385.972 748.714 383.951 748.763 381.606V376.367C748.714 373.971 747.99 371.926 746.593 370.229C745.196 368.533 743.474 367.684 741.428 367.684C737.187 367.684 735.067 370.678 735.067 376.666ZM769.377 391.86H768.104L758.225 368.358L755.231 367.909V367.011H766.682V367.909L763.389 368.508L770.35 385.872L776.562 369.106L772.52 367.909V367.086H780.753V367.909L777.909 369.032L769.377 391.86ZM795.302 386.321C794.503 387.918 793.356 389.165 791.859 390.063C790.362 390.912 788.64 391.336 786.694 391.336C784.798 391.336 783.227 390.837 781.979 389.839C780.782 388.791 780.183 387.369 780.183 385.573C780.183 383.776 780.557 382.354 781.305 381.306C783.401 378.562 787.518 377.19 793.655 377.19H795.302V372.699C795.302 369.306 793.755 367.61 790.661 367.61C789.264 367.61 788.117 367.934 787.218 368.583C786.37 369.231 785.946 369.98 785.946 370.828C785.946 371.676 786.345 372.225 787.144 372.475C787.144 373.273 786.844 373.971 786.245 374.57C785.696 375.119 785.023 375.394 784.225 375.394C783.476 375.394 782.802 375.119 782.204 374.57C781.655 373.971 781.38 373.248 781.38 372.4C781.38 370.803 782.278 369.431 784.075 368.283C785.871 367.136 788.067 366.562 790.661 366.562C796.898 366.562 799.992 368.932 799.942 373.672V387.818C799.942 389.215 800.516 389.914 801.664 389.914C802.811 389.914 803.385 389.24 803.385 387.893H804.358C804.358 388.941 804.009 389.789 803.31 390.438C802.612 391.036 801.589 391.336 800.242 391.336C798.894 391.336 797.747 390.937 796.799 390.138C795.851 389.29 795.352 388.018 795.302 386.321ZM795.302 383.028V378.313H793.655C791.26 378.313 789.239 378.886 787.593 380.034C785.996 381.182 785.198 382.903 785.198 385.198C785.198 386.446 785.522 387.419 786.171 388.117C786.869 388.816 787.892 389.165 789.239 389.165C790.586 389.165 791.884 388.616 793.131 387.519C794.379 386.421 795.102 384.924 795.302 383.028ZM822.948 373.298C822.948 369.905 821.626 368.208 818.981 368.208C816.386 368.208 813.867 370.005 811.422 373.597V389.539L814.191 389.914V390.887H803.563V389.914L806.781 389.539V368.358L803.563 367.909V367.011H811.422V371.951C813.917 368.358 816.91 366.562 820.403 366.562C822.599 366.562 824.345 367.136 825.642 368.283C826.94 369.381 827.588 371.003 827.588 373.148V389.539L830.732 389.914V390.887H820.179V389.914L822.948 389.539V373.298ZM847.336 373.822C848.134 373.273 848.533 372.475 848.533 371.427C848.533 370.329 848.084 369.431 847.186 368.732C846.288 367.984 845.09 367.61 843.593 367.61C841.398 367.61 839.701 368.408 838.504 370.005C837.306 371.551 836.708 373.772 836.708 376.666V381.232C836.708 383.976 837.281 386.196 838.429 387.893C839.577 389.539 841.248 390.363 843.444 390.363C845.639 390.363 847.51 389.764 849.057 388.566C850.604 387.369 851.552 385.797 851.901 383.851H852.949C852.55 386.146 851.502 387.968 849.806 389.315C848.109 390.662 846.038 391.336 843.593 391.336C840.2 391.336 837.356 390.213 835.061 387.968C832.766 385.672 831.618 382.654 831.618 378.911C831.618 375.119 832.791 372.125 835.136 369.93C837.531 367.684 840.2 366.562 843.144 366.562C846.138 366.562 848.533 367.235 850.33 368.583C852.176 369.93 853.099 371.601 853.099 373.597C853.099 374.645 852.824 375.443 852.276 375.992C851.777 376.491 851.103 376.741 850.255 376.741C849.406 376.741 848.708 376.466 848.159 375.917C847.61 375.369 847.336 374.67 847.336 373.822ZM872.651 388.492C874.248 387.294 875.246 385.747 875.645 383.851H876.768C876.319 386.146 875.221 387.968 873.474 389.315C871.728 390.662 869.582 391.336 867.038 391.336C863.545 391.336 860.626 390.188 858.281 387.893C855.985 385.647 854.838 382.704 854.838 379.061C854.838 375.369 855.96 372.375 858.206 370.079C860.451 367.734 863.171 366.562 866.364 366.562C869.607 366.562 872.152 367.535 873.998 369.481C875.895 371.377 876.868 373.772 876.917 376.666H859.927V381.232C859.927 383.976 860.526 386.171 861.724 387.818C863.021 389.515 864.767 390.363 866.963 390.363C869.158 390.363 871.054 389.739 872.651 388.492ZM866.663 367.61C864.618 367.61 863.021 368.333 861.873 369.78C860.726 371.177 860.102 373.098 860.002 375.543H871.828C871.828 370.254 870.106 367.61 866.663 367.61ZM893.654 390.887V389.914L896.423 389.539V373.298C896.423 369.905 895.201 368.208 892.756 368.208C890.311 368.208 888.015 369.755 885.87 372.849V389.539L888.639 389.914V390.887H878.011V389.914L881.229 389.539V368.358L878.011 367.909V367.011H885.87V371.277C888.215 368.133 890.959 366.562 894.103 366.562C898.045 366.562 900.34 368.208 900.989 371.502C903.384 368.208 906.178 366.562 909.372 366.562C911.567 366.562 913.264 367.111 914.461 368.208C915.709 369.306 916.332 370.953 916.332 373.148V389.539L919.551 389.914V390.887H908.997V389.914L911.692 389.539V373.298C911.692 369.905 910.469 368.208 908.024 368.208C905.579 368.208 903.284 369.755 901.139 372.849V389.539L903.908 389.914V390.887H893.654ZM938.247 388.492C939.843 387.294 940.841 385.747 941.24 383.851H942.363C941.914 386.146 940.816 387.968 939.07 389.315C937.324 390.662 935.178 391.336 932.633 391.336C929.14 391.336 926.221 390.188 923.876 387.893C921.581 385.647 920.433 382.704 920.433 379.061C920.433 375.369 921.556 372.375 923.801 370.079C926.047 367.734 928.766 366.562 931.96 366.562C935.203 366.562 937.748 367.535 939.594 369.481C941.49 371.377 942.463 373.772 942.513 376.666H925.523V381.232C925.523 383.976 926.122 386.171 927.319 387.818C928.616 389.515 930.363 390.363 932.558 390.363C934.754 390.363 936.65 389.739 938.247 388.492ZM932.259 367.61C930.213 367.61 928.616 368.333 927.469 369.78C926.321 371.177 925.697 373.098 925.598 375.543H937.423C937.423 370.254 935.702 367.61 932.259 367.61ZM962.992 373.298C962.992 369.905 961.669 368.208 959.025 368.208C956.43 368.208 953.91 370.005 951.465 373.597V389.539L954.235 389.914V390.887H943.606V389.914L946.825 389.539V368.358L943.606 367.909V367.011H951.465V371.951C953.96 368.358 956.954 366.562 960.447 366.562C962.642 366.562 964.389 367.136 965.686 368.283C966.983 369.381 967.632 371.003 967.632 373.148V389.539L970.776 389.914V390.887H960.222V389.914L962.992 389.539V373.298ZM984.46 367.011V367.909L978.473 368.358V384.899C978.473 388.192 979.645 389.814 981.99 389.764C983.038 389.764 984.011 389.44 984.909 388.791L985.508 389.539C984.111 390.737 982.465 391.336 980.568 391.336C976.128 391.336 973.907 389.215 973.907 384.974V368.358L970.539 367.909V367.011H973.907V363.119L978.473 361.996V367.011H984.46Z" fill="black"/>
</g>
<g filter="url(#filter2_d_1445_915)">
<rect x="793.078" y="33.2852" width="291.22" height="75.8641" rx="37.9321" fill="white" shape-rendering="crispEdges"/>
<path d="M872.808 73.6419C872.808 77.3343 871.761 80.1036 869.665 81.9498C867.619 83.796 864.301 84.7191 859.71 84.7191C855.12 84.7191 851.777 83.6962 849.681 81.6504C847.635 79.6046 846.612 76.9351 846.612 73.6419V48.4935L842.346 47.8199V46.8469H855.968V47.8199L851.702 48.4935V73.6419C851.702 79.879 855.095 83.0226 861.881 83.0725C868.417 83.0725 871.686 79.9289 871.686 73.6419V49.6911L867.419 47.8199V46.8469H877.224V47.8199L872.808 49.6911V73.6419ZM885.269 59.8701V64.7352C886.865 61.1924 889.385 59.4211 892.828 59.4211C896.321 59.4211 899.065 60.5687 901.061 62.864C903.057 65.1094 904.055 68.1032 904.055 71.8455C904.055 75.5879 903.057 78.5817 901.061 80.8271C899.065 83.0725 896.346 84.1952 892.903 84.1952C889.46 84.1952 886.915 82.4488 885.269 78.9559V95.4221L889.61 95.8712V96.8442H877.485V95.8712L880.628 95.4221V61.2174L877.485 60.7683V59.8701H885.269ZM899.04 74.1658V69.5253C899.04 63.5875 896.895 60.5937 892.604 60.5438C890.558 60.5438 888.836 61.392 887.439 63.0885C886.042 64.785 885.319 66.8308 885.269 69.2259V74.1658C885.269 76.6108 885.967 78.7064 887.364 80.4529C888.762 82.1993 890.508 83.0725 892.604 83.0725C896.895 83.0725 899.04 80.1036 899.04 74.1658ZM910.822 79.6296C910.822 82.0745 912.468 83.297 915.762 83.297C917.458 83.297 918.93 82.8729 920.178 82.0246C921.425 81.1764 922.049 80.1535 922.049 78.9559C922.049 77.7584 921.625 76.8852 920.776 76.3363C919.928 75.7375 918.531 75.1138 916.585 74.4652L910.597 72.594C907.853 71.7956 906.481 69.7498 906.481 66.4566C906.481 64.4607 907.279 62.7892 908.876 61.4419C910.473 60.0947 912.543 59.4211 915.088 59.4211C917.633 59.4211 919.629 59.8701 921.076 60.7683C922.523 61.6166 923.246 62.7642 923.246 64.2112C923.246 64.9597 922.997 65.6084 922.498 66.1572C921.999 66.7061 921.4 66.9805 920.702 66.9805C920.003 66.9805 919.429 66.8059 918.98 66.4566C918.581 66.1073 918.381 65.6333 918.381 65.0345C918.98 64.5855 919.304 63.9867 919.354 63.2382C919.354 61.2922 917.957 60.3192 915.163 60.3192C913.167 60.3192 911.57 60.7184 910.373 61.5168C909.225 62.3151 908.651 63.2382 908.651 64.2861C908.651 65.3339 908.851 66.0824 909.25 66.5315C909.699 66.9805 910.522 67.4047 911.72 67.8038L919.055 70.0492C920.751 70.5981 921.999 71.4214 922.797 72.5192C923.646 73.6169 924.07 75.1138 924.07 77.0099C924.07 78.8561 923.346 80.5277 921.899 82.0246C920.502 83.4717 918.356 84.1952 915.462 84.1952C909.225 84.1952 906.107 82.4987 906.107 79.1056C906.107 78.1576 906.381 77.3842 906.93 76.7854C907.479 76.1367 908.127 75.8124 908.876 75.8124C910.323 75.8124 911.246 76.4611 911.645 77.7584C911.096 78.3572 910.822 78.9809 910.822 79.6296ZM925.178 83.7461V82.7731L928.322 82.3989V48.1941L925.178 47.8199V46.8469H932.962V70.4983L943.516 61.891L939.549 60.7683V59.8701H948.231V60.7683L945.237 61.891L937.603 68.1032L948.381 82.3989L950.851 82.7731V83.7461H940.073V82.7731L942.842 82.3989L934.16 70.9474L932.962 71.9204V82.3989L935.732 82.7731V83.7461H925.178ZM951.502 51.4125C951.502 50.5144 951.802 49.7909 952.4 49.242C952.999 48.6931 953.723 48.4187 954.571 48.4187C955.469 48.4187 956.193 48.6931 956.742 49.242C957.34 49.7909 957.64 50.5144 957.64 51.4125C957.64 52.2608 957.34 52.9843 956.742 53.5831C956.193 54.1818 955.494 54.4812 954.646 54.4812C953.798 54.4812 953.049 54.1818 952.4 53.5831C951.802 52.9843 951.502 52.2608 951.502 51.4125ZM949.781 60.7683V59.945H957.64V82.3989L960.783 82.7731V83.7461H949.781V82.7731L952.999 82.3989V61.2922L949.781 60.7683ZM960.75 47.8199V46.8469H968.833V82.3989L972.052 82.7731V83.7461H960.75V82.7731L964.268 82.3989V48.1941L960.75 47.8199ZM971.94 47.8199V46.8469H980.024V82.3989L983.242 82.7731V83.7461H971.94V82.7731L975.458 82.3989V48.1941L971.94 47.8199ZM985.301 51.4125C985.301 50.5144 985.601 49.7909 986.199 49.242C986.798 48.6931 987.522 48.4187 988.37 48.4187C989.268 48.4187 989.992 48.6931 990.54 49.242C991.139 49.7909 991.439 50.5144 991.439 51.4125C991.439 52.2608 991.139 52.9843 990.54 53.5831C989.992 54.1818 989.293 54.4812 988.445 54.4812C987.596 54.4812 986.848 54.1818 986.199 53.5831C985.601 52.9843 985.301 52.2608 985.301 51.4125ZM983.58 60.7683V59.945H991.439V82.3989L994.582 82.7731V83.7461H983.58V82.7731L986.798 82.3989V61.2922L983.58 60.7683ZM1014.31 66.1572C1014.31 62.7642 1012.99 61.0677 1010.34 61.0677C1007.75 61.0677 1005.23 62.864 1002.78 66.4566V82.3989L1005.55 82.7731V83.7461H994.923V82.7731L998.142 82.3989V61.2174L994.923 60.7683V59.8701H1002.78V64.81C1005.28 61.2174 1008.27 59.4211 1011.76 59.4211C1013.96 59.4211 1015.71 59.9949 1017 61.1425C1018.3 62.2403 1018.95 63.8619 1018.95 66.0075V82.3989L1022.09 82.7731V83.7461H1011.54V82.7731L1014.31 82.3989V66.1572ZM1028.59 75.9621C1026.55 76.1118 1025.52 76.9101 1025.52 78.3572C1025.52 79.0557 1025.92 79.6046 1026.72 80.0038C1027.52 80.3531 1028.52 80.5277 1029.71 80.5277H1037.27C1039.72 80.5277 1041.57 81.0267 1042.81 82.0246C1044.11 82.9727 1044.76 84.5694 1044.76 86.8148C1044.76 89.7587 1043.74 92.2287 1041.69 94.2246C1039.69 96.2205 1036.82 97.2184 1033.08 97.2184C1029.34 97.2184 1026.52 96.6196 1024.63 95.4221C1022.73 94.2745 1021.78 92.7276 1021.78 90.7816C1021.78 89.634 1022.18 88.636 1022.98 87.7878C1023.78 86.9395 1024.87 86.5154 1026.27 86.5154C1026.52 86.5154 1027.09 86.5903 1027.99 86.7399C1027.05 87.7379 1026.57 88.9853 1026.57 90.4823C1026.57 92.0291 1027.09 93.3763 1028.14 94.524C1029.24 95.7215 1031.14 96.3203 1033.83 96.3203C1036.53 96.3203 1038.8 95.5468 1040.64 94C1042.54 92.4532 1043.49 90.7068 1043.49 88.7608C1043.49 87.4136 1043.14 86.4406 1042.44 85.8418C1041.74 85.2929 1040.49 85.0185 1038.7 85.0185H1029.71C1025.37 85.0185 1023.2 83.4966 1023.2 80.4529C1023.2 79.0557 1023.58 77.933 1024.33 77.0848C1025.07 76.1866 1026.1 75.5879 1027.39 75.2885C1025 73.6918 1023.8 71.4214 1023.8 68.4775C1023.8 65.5335 1024.67 63.2881 1026.42 61.7413C1028.22 60.1945 1030.41 59.4211 1033.01 59.4211C1035.65 59.4211 1037.82 60.0947 1039.52 61.4419C1040.72 61.392 1041.59 61.1425 1042.14 60.6935C1042.74 60.1945 1043.04 59.6456 1043.04 59.0468C1043.04 58.4481 1042.89 57.999 1042.59 57.6996C1042.29 57.4002 1041.94 57.2505 1041.54 57.2505C1041.54 56.4522 1041.81 55.8035 1042.36 55.3045C1042.91 54.7557 1043.59 54.4812 1044.38 54.4812C1045.18 54.4812 1045.86 54.7307 1046.41 55.2297C1046.95 55.7287 1047.23 56.527 1047.23 57.6248C1047.23 58.7225 1046.68 59.7454 1045.58 60.6935C1044.53 61.5916 1042.81 62.1155 1040.42 62.2652C1041.91 63.812 1042.64 65.8578 1042.59 68.4026C1042.59 70.8975 1041.69 72.9433 1039.89 74.54C1038.15 76.0868 1035.9 76.8602 1033.16 76.8602C1031.41 76.8602 1029.89 76.5609 1028.59 75.9621ZM1038.25 69.2259V66.9805C1038.25 62.4898 1036.55 60.2444 1033.16 60.2444C1029.81 60.2444 1028.14 62.4898 1028.14 66.9805V69.2259C1028.14 71.3715 1028.54 73.0431 1029.34 74.2406C1030.19 75.4382 1031.46 76.0369 1033.16 76.0369C1034.85 76.0369 1036.13 75.4382 1036.97 74.2406C1037.82 73.0431 1038.25 71.3715 1038.25 69.2259Z" fill="black"/>
</g>
<g filter="url(#filter3_d_1445_915)">
<rect x="56" y="109.164" width="299.261" height="84.6042" rx="42.3021" fill="white" shape-rendering="crispEdges"/>
<path d="M114.261 133.034H127.808V134.007L123.542 134.681V168.811H137.314L141.056 158.707H142.328V169.934H114.261V168.961L118.453 168.287V134.681L114.261 134.007V133.034ZM161.298 167.539C162.895 166.341 163.893 164.794 164.292 162.898H165.415C164.966 165.193 163.868 167.015 162.122 168.362C160.375 169.709 158.23 170.383 155.685 170.383C152.192 170.383 149.273 169.235 146.928 166.94C144.633 164.694 143.485 161.75 143.485 158.108C143.485 154.415 144.608 151.422 146.853 149.126C149.098 146.781 151.818 145.609 155.011 145.609C158.255 145.609 160.799 146.582 162.646 148.528C164.542 150.424 165.515 152.819 165.565 155.713H148.575V160.278C148.575 163.023 149.173 165.218 150.371 166.865C151.668 168.561 153.415 169.41 155.61 169.41C157.806 169.41 159.702 168.786 161.298 167.539ZM155.311 146.656C153.265 146.656 151.668 147.38 150.521 148.827C149.373 150.224 148.749 152.145 148.649 154.59H160.475C160.475 149.301 158.754 146.656 155.311 146.656ZM182.301 165.368C181.503 166.965 180.355 168.212 178.858 169.11C177.361 169.959 175.64 170.383 173.694 170.383C171.798 170.383 170.226 169.884 168.978 168.886C167.781 167.838 167.182 166.416 167.182 164.62C167.182 162.823 167.556 161.401 168.305 160.353C170.401 157.609 174.517 156.237 180.654 156.237H182.301V151.746C182.301 148.353 180.754 146.656 177.661 146.656C176.264 146.656 175.116 146.981 174.218 147.629C173.369 148.278 172.945 149.027 172.945 149.875C172.945 150.723 173.345 151.272 174.143 151.521C174.143 152.32 173.843 153.018 173.245 153.617C172.696 154.166 172.022 154.44 171.224 154.44C170.475 154.44 169.802 154.166 169.203 153.617C168.654 153.018 168.38 152.295 168.38 151.447C168.38 149.85 169.278 148.478 171.074 147.33C172.87 146.182 175.066 145.609 177.661 145.609C183.898 145.609 186.991 147.979 186.942 152.719V166.865C186.942 168.262 187.515 168.961 188.663 168.961C189.811 168.961 190.385 168.287 190.385 166.94H191.358C191.358 167.988 191.008 168.836 190.31 169.485C189.611 170.083 188.588 170.383 187.241 170.383C185.894 170.383 184.746 169.983 183.798 169.185C182.85 168.337 182.351 167.064 182.301 165.368ZM182.301 162.075V157.359H180.654C178.259 157.359 176.239 157.933 174.592 159.081C172.995 160.229 172.197 161.95 172.197 164.245C172.197 165.493 172.521 166.466 173.17 167.164C173.868 167.863 174.891 168.212 176.239 168.212C177.586 168.212 178.883 167.663 180.131 166.566C181.378 165.468 182.102 163.971 182.301 162.075ZM190.562 169.934V168.961L193.781 168.586V147.405L190.562 146.956V146.058H198.421V149.575C200.367 146.931 202.562 145.609 205.007 145.609C206.155 145.609 207.178 145.908 208.076 146.507C208.974 147.105 209.423 147.904 209.423 148.902C209.423 149.85 209.149 150.598 208.6 151.147C208.051 151.646 207.303 151.896 206.355 151.896C205.457 151.896 204.733 151.521 204.184 150.773C204.533 150.324 204.683 149.85 204.633 149.351C204.633 148.852 204.459 148.428 204.109 148.078C203.76 147.729 203.286 147.555 202.687 147.555C201.49 147.555 200.068 148.802 198.421 151.297V168.586L202.088 168.961V169.934H190.562ZM228.378 152.345C228.378 148.952 227.056 147.255 224.411 147.255C221.817 147.255 219.297 149.051 216.852 152.644V168.586L219.621 168.961V169.934H208.993V168.961L212.211 168.586V147.405L208.993 146.956V146.058H216.852V150.997C219.347 147.405 222.34 145.609 225.833 145.609C228.029 145.609 229.775 146.182 231.073 147.33C232.37 148.428 233.019 150.049 233.019 152.195V168.586L236.162 168.961V169.934H225.609V168.961L228.378 168.586V152.345ZM238.171 137.6C238.171 136.702 238.47 135.978 239.069 135.429C239.668 134.881 240.391 134.606 241.24 134.606C242.138 134.606 242.861 134.881 243.41 135.429C244.009 135.978 244.308 136.702 244.308 137.6C244.308 138.448 244.009 139.172 243.41 139.771C242.861 140.369 242.163 140.669 241.314 140.669C240.466 140.669 239.718 140.369 239.069 139.771C238.47 139.172 238.171 138.448 238.171 137.6ZM236.449 146.956V146.132H244.308V168.586L247.452 168.961V169.934H236.449V168.961L239.668 168.586V147.48L236.449 146.956ZM267.178 152.345C267.178 148.952 265.856 147.255 263.211 147.255C260.616 147.255 258.097 149.051 255.652 152.644V168.586L258.421 168.961V169.934H247.793V168.961L251.011 168.586V147.405L247.793 146.956V146.058H255.652V150.997C258.147 147.405 261.14 145.609 264.633 145.609C266.829 145.609 268.575 146.182 269.872 147.33C271.17 148.428 271.818 150.049 271.818 152.195V168.586L274.962 168.961V169.934H264.409V168.961L267.178 168.586V152.345ZM281.462 162.15C279.416 162.299 278.393 163.098 278.393 164.545C278.393 165.243 278.792 165.792 279.59 166.191C280.389 166.541 281.387 166.715 282.584 166.715H290.144C292.589 166.715 294.435 167.214 295.682 168.212C296.98 169.16 297.628 170.757 297.628 173.002C297.628 175.946 296.605 178.416 294.56 180.412C292.564 182.408 289.695 183.406 285.952 183.406C282.21 183.406 279.391 182.807 277.495 181.61C275.599 180.462 274.651 178.915 274.651 176.969C274.651 175.821 275.05 174.824 275.848 173.975C276.646 173.127 277.744 172.703 279.141 172.703C279.391 172.703 279.965 172.778 280.863 172.927C279.915 173.925 279.441 175.173 279.441 176.67C279.441 178.217 279.965 179.564 281.012 180.711C282.11 181.909 284.006 182.508 286.701 182.508C289.395 182.508 291.666 181.734 293.512 180.188C295.408 178.641 296.356 176.894 296.356 174.948C296.356 173.601 296.007 172.628 295.308 172.029C294.61 171.48 293.362 171.206 291.566 171.206H282.584C278.243 171.206 276.073 169.684 276.073 166.64C276.073 165.243 276.447 164.121 277.195 163.272C277.944 162.374 278.967 161.775 280.264 161.476C277.869 159.879 276.671 157.609 276.671 154.665C276.671 151.721 277.545 149.476 279.291 147.929C281.087 146.382 283.283 145.609 285.877 145.609C288.522 145.609 290.693 146.282 292.389 147.629C293.587 147.58 294.46 147.33 295.009 146.881C295.607 146.382 295.907 145.833 295.907 145.234C295.907 144.636 295.757 144.186 295.458 143.887C295.158 143.588 294.809 143.438 294.41 143.438C294.41 142.64 294.684 141.991 295.233 141.492C295.782 140.943 296.456 140.669 297.254 140.669C298.052 140.669 298.726 140.918 299.275 141.417C299.824 141.916 300.098 142.715 300.098 143.812C300.098 144.91 299.549 145.933 298.452 146.881C297.404 147.779 295.682 148.303 293.287 148.453C294.784 150 295.508 152.045 295.458 154.59C295.458 157.085 294.56 159.131 292.763 160.728C291.017 162.274 288.772 163.048 286.027 163.048C284.281 163.048 282.759 162.748 281.462 162.15ZM291.117 155.413V153.168C291.117 148.677 289.42 146.432 286.027 146.432C282.684 146.432 281.012 148.677 281.012 153.168V155.413C281.012 157.559 281.412 159.231 282.21 160.428C283.058 161.626 284.331 162.224 286.027 162.224C287.724 162.224 288.996 161.626 289.844 160.428C290.693 159.231 291.117 157.559 291.117 155.413Z" fill="black"/>
</g>
<g filter="url(#filter4_d_1445_915)">
<path d="M766.219 57.8426C612.655 5.28615 457.45 -35.7736 266.928 97.6406" stroke="#39DC8E" stroke-width="3.28478" stroke-linecap="round" stroke-linejoin="round" stroke-dasharray="6.57 13.14"/>
</g>
<g filter="url(#filter5_d_1445_915)">
<path d="M77.0586 231.492C77.0586 341.532 77.0586 495.536 256.9 596.543" stroke="#39DC8E" stroke-width="3.28478" stroke-linecap="round" stroke-linejoin="round" stroke-dasharray="6.57 13.14"/>
</g>
<g filter="url(#filter6_d_1445_915)">
<path d="M663.393 384.354C540.542 373.432 465.512 430.774 486.125 532.489" stroke="#39DC8E" stroke-width="3.28478" stroke-linecap="round" stroke-linejoin="round" stroke-dasharray="6.57 13.14"/>
</g>
<g filter="url(#filter7_d_1445_915)">
<path d="M1014.87 140.781C1034.57 222.079 1032.93 259.033 994.027 309.126" stroke="#39DC8E" stroke-width="3.28478" stroke-linecap="round" stroke-linejoin="round" stroke-dasharray="6.57 13.14"/>
</g>
<defs>
<filter id="filter0_d_1445_915" x="232.421" y="512.797" width="391.19" height="202.753" filterUnits="userSpaceOnUse" color-interpolation-filters="sRGB">
<feFlood flood-opacity="0" result="BackgroundImageFix"/>
<feColorMatrix in="SourceAlpha" type="matrix" values="0 0 0 0 0 0 0 0 0 0 0 0 0 0 0 0 0 0 127 0" result="hardAlpha"/>
<feOffset dy="22.9934"/>
<feGaussianBlur stdDeviation="27.9206"/>
<feComposite in2="hardAlpha" operator="out"/>
<feColorMatrix type="matrix" values="0 0 0 0 0 0 0 0 0 0 0 0 0 0 0 0 0 0 0.1 0"/>
<feBlend mode="normal" in2="BackgroundImageFix" result="effect1_dropShadow_1445_915"/>
<feBlend mode="normal" in="SourceGraphic" in2="effect1_dropShadow_1445_915" result="shape"/>
</filter>
<filter id="filter1_d_1445_915" x="598.284" y="307.93" width="485.761" height="188.944" filterUnits="userSpaceOnUse" color-interpolation-filters="sRGB">
<feFlood flood-opacity="0" result="BackgroundImageFix"/>
<feColorMatrix in="SourceAlpha" type="matrix" values="0 0 0 0 0 0 0 0 0 0 0 0 0 0 0 0 0 0 127 0" result="hardAlpha"/>
<feOffset dy="22.9934"/>
<feGaussianBlur stdDeviation="27.9206"/>
<feComposite in2="hardAlpha" operator="out"/>
<feColorMatrix type="matrix" values="0 0 0 0 0 0 0 0 0 0 0 0 0 0 0 0 0 0 0.1 0"/>
<feBlend mode="normal" in2="BackgroundImageFix" result="effect1_dropShadow_1445_915"/>
<feBlend mode="normal" in="SourceGraphic" in2="effect1_dropShadow_1445_915" result="shape"/>
</filter>
<filter id="filter2_d_1445_915" x="737.237" y="0.437387" width="402.901" height="187.546" filterUnits="userSpaceOnUse" color-interpolation-filters="sRGB">
<feFlood flood-opacity="0" result="BackgroundImageFix"/>
<feColorMatrix in="SourceAlpha" type="matrix" values="0 0 0 0 0 0 0 0 0 0 0 0 0 0 0 0 0 0 127 0" result="hardAlpha"/>
<feOffset dy="22.9934"/>
<feGaussianBlur stdDeviation="27.9206"/>
<feComposite in2="hardAlpha" operator="out"/>
<feColorMatrix type="matrix" values="0 0 0 0 0 0 0 0 0 0 0 0 0 0 0 0 0 0 0.1 0"/>
<feBlend mode="normal" in2="BackgroundImageFix" result="effect1_dropShadow_1445_915"/>
<feBlend mode="normal" in="SourceGraphic" in2="effect1_dropShadow_1445_915" result="shape"/>
</filter>
<filter id="filter3_d_1445_915" x="0.158794" y="76.3163" width="410.944" height="196.288" filterUnits="userSpaceOnUse" color-interpolation-filters="sRGB">
<feFlood flood-opacity="0" result="BackgroundImageFix"/>
<feColorMatrix in="SourceAlpha" type="matrix" values="0 0 0 0 0 0 0 0 0 0 0 0 0 0 0 0 0 0 127 0" result="hardAlpha"/>
<feOffset dy="22.9934"/>
<feGaussianBlur stdDeviation="27.9206"/>
<feComposite in2="hardAlpha" operator="out"/>
<feColorMatrix type="matrix" values="0 0 0 0 0 0 0 0 0 0 0 0 0 0 0 0 0 0 0.1 0"/>
<feBlend mode="normal" in2="BackgroundImageFix" result="effect1_dropShadow_1445_915"/>
<feBlend mode="normal" in="SourceGraphic" in2="effect1_dropShadow_1445_915" result="shape"/>
</filter>
<filter id="filter4_d_1445_915" x="252.146" y="6.40625" width="541.995" height="138.862" filterUnits="userSpaceOnUse" color-interpolation-filters="sRGB">
<feFlood flood-opacity="0" result="BackgroundImageFix"/>
<feColorMatrix in="SourceAlpha" type="matrix" values="0 0 0 0 0 0 0 0 0 0 0 0 0 0 0 0 0 0 127 0" result="hardAlpha"/>
<feOffset dx="6.56955" dy="26.2782"/>
<feGaussianBlur stdDeviation="9.85433"/>
<feComposite in2="hardAlpha" operator="out"/>
<feColorMatrix type="matrix" values="0 0 0 0 0.224227 0 0 0 0 0.861929 0 0 0 0 0.555832 0 0 0 1 0"/>
<feBlend mode="normal" in2="BackgroundImageFix" result="effect1_dropShadow_1445_915"/>
<feBlend mode="normal" in="SourceGraphic" in2="effect1_dropShadow_1445_915" result="shape"/>
</filter>
<filter id="filter5_d_1445_915" x="62.2789" y="229.852" width="222.542" height="414.323" filterUnits="userSpaceOnUse" color-interpolation-filters="sRGB">
<feFlood flood-opacity="0" result="BackgroundImageFix"/>
<feColorMatrix in="SourceAlpha" type="matrix" values="0 0 0 0 0 0 0 0 0 0 0 0 0 0 0 0 0 0 127 0" result="hardAlpha"/>
<feOffset dx="6.56955" dy="26.2782"/>
<feGaussianBlur stdDeviation="9.85433"/>
<feComposite in2="hardAlpha" operator="out"/>
<feColorMatrix type="matrix" values="0 0 0 0 0.224227 0 0 0 0 0.861929 0 0 0 0 0.555832 0 0 0 1 0"/>
<feBlend mode="normal" in2="BackgroundImageFix" result="effect1_dropShadow_1445_915"/>
<feBlend mode="normal" in="SourceGraphic" in2="effect1_dropShadow_1445_915" result="shape"/>
</filter>
<filter id="filter6_d_1445_915" x="468.005" y="381.445" width="223.308" height="198.674" filterUnits="userSpaceOnUse" color-interpolation-filters="sRGB">
<feFlood flood-opacity="0" result="BackgroundImageFix"/>
<feColorMatrix in="SourceAlpha" type="matrix" values="0 0 0 0 0 0 0 0 0 0 0 0 0 0 0 0 0 0 127 0" result="hardAlpha"/>
<feOffset dx="6.56955" dy="26.2782"/>
<feGaussianBlur stdDeviation="9.85433"/>
<feComposite in2="hardAlpha" operator="out"/>
<feColorMatrix type="matrix" values="0 0 0 0 0.224227 0 0 0 0 0.861929 0 0 0 0 0.555832 0 0 0 1 0"/>
<feBlend mode="normal" in2="BackgroundImageFix" result="effect1_dropShadow_1445_915"/>
<feBlend mode="normal" in="SourceGraphic" in2="effect1_dropShadow_1445_915" result="shape"/>
</filter>
<filter id="filter7_d_1445_915" x="979.248" y="139.137" width="75.9212" height="217.62" filterUnits="userSpaceOnUse" color-interpolation-filters="sRGB">
<feFlood flood-opacity="0" result="BackgroundImageFix"/>
<feColorMatrix in="SourceAlpha" type="matrix" values="0 0 0 0 0 0 0 0 0 0 0 0 0 0 0 0 0 0 127 0" result="hardAlpha"/>
<feOffset dx="6.56955" dy="26.2782"/>
<feGaussianBlur stdDeviation="9.85433"/>
<feComposite in2="hardAlpha" operator="out"/>
<feColorMatrix type="matrix" values="0 0 0 0 0.224227 0 0 0 0 0.861929 0 0 0 0 0.555832 0 0 0 1 0"/>
<feBlend mode="normal" in2="BackgroundImageFix" result="effect1_dropShadow_1445_915"/>
<feBlend mode="normal" in="SourceGraphic" in2="effect1_dropShadow_1445_915" result="shape"/>
</filter>
</defs>
</svg>
