<svg width="459" height="61" viewBox="0 0 459 61" fill="none" xmlns="http://www.w3.org/2000/svg">
<path d="M456.254 3.3888C362.373 7.68778 269.052 8.96015 175.165 15.2763C121.198 18.9069 -40.1889 29.8159 13.545 30.0245C101.866 30.3674 192.481 22.6457 281.198 20.4568C315.572 19.6088 349.727 19.4555 383.995 19.4445C397.183 19.4402 407.563 20.4153 386.546 21.4546C292.743 26.0935 199.115 26.9279 105.292 31.337C95.2794 31.8075 65.6874 34.0758 75.4378 34.9105C111.178 37.9701 149.186 37.2012 185.518 37.5365C229.269 37.9404 273.6 36.7894 317.093 38.49C332.717 39.1009 353.482 37.9804 368.199 40.6323C394.243 45.3251 312.611 47.8527 284.645 49.8478C238.104 53.1681 191.527 55.4097 144.976 58.1418" stroke="#39DC8E" stroke-width="4.92717" stroke-linecap="round" stroke-linejoin="round"/>
</svg>
