<svg xmlns="http://www.w3.org/2000/svg" width="2560" height="1440" fill="#fff" fill-opacity="0.7"><g><path d="M284.5 313.5C141.5 370.518 24.5 493.499.205 519.499V1440H1122.5c6-170 145.5-229 111.5-331.5-29.36-88.5-181.95-125.19-270-145.001-48.5-10.912-88.996-17.776-121.5-47-54.5-49-34.99-122.453 0-197.499C915 563.499 790 429.139 751 401c-138-99.57-311.001-149.503-466.5-87.5z"/><path d="M2513 73c-20.47-28.5-44-55-64-73H1L0 1440h2560V144c-9.18-18.365-25.4-40.933-44.96-68.158L2513 73z"/><path clip-rule="evenodd" d="M2039 0c15.17 18 53 74 83 154 14.99 39.979 26.55 72.685 36.78 101.634 15.35 43.461 27.71 78.452 44.22 116.866 27.5 64 66.86 175.136 86 261.5 20.5 92.5 19.94 168 0 278.5-12 66.5-66.5 150.5-132 246.5s-106.5 152-132 186c-6.43 8.58-13.15 16.9-19.73 25.05-19.48 24.12-37.66 46.65-43.27 69.45h-24.5l-1672 .5c-33-34.5-113.811-120.14-182.5-262C14 1035.5-.5 884-.5 766.5.328 694.039-.5 374-.5 374l.541-2.761C5.248 344.637 10.905 315.737 37 250.5 64 183 111 92 171 .5h1278.34l.16-.5H2039z"/><path d="M2082.5 838c-.33-44.915-6.08-65.069-23.03-89.606-8.46-12.249-19.15-22.864-31.42-31.298-39.33-27.037-66.02-28.343-113.55-26.596C1846.5 693 1767 758 1715 795s-93 5.5-116.5-30-57-65.5-79.5-74.5-41.5-12-41.5 12.5 33 62.5 74.5 92 45.5 42.5 46.5 70-38 141.5-121 123.5-114-82.5-136.5-163 44.5-119.5 82-147 9.5-89 70-162 195.5-67 243.5-63.5 92 .5 127.5-13 200.5-88 305-83 217.5 69 279 181.5 52 247.5 8.5 345.5-161.5 201-267.5 162.5c-105.28-38.24-106-138.128-106.49-207.086l-.01-1.414zm-1853-231c-18.8-68.4 15.645-164.499 55-216C325 338.001 354 304 438 266c83.377-37.718 221-10 347 123s88 232.5 71 258-93.5 130.5-115.5 169.5S661 972 592 974s-130.5-88.5-153.5-132-38-60-85-81.5-100.5-68-124-153.5z"/><path d="M1064 1281.5c-20.4 55.2-2.5 129 9 159h1487.5v-1046c-33.83-17.167-127.4-58.8-231-88-129.5-36.5-271-15.5-368.5 6S1795 348 1656.5 353 1384 418 1300 538.5s-54.5 235.5-36.5 349-8 158-31.5 193.5-142.5 131.5-168 200.5z"/><path d="M572 1245c2 71.2-9.5 160.17-15.5 195H2560l1-262.5c-28.5-63-98.8-211.8-152-303-66.5-114-97.5-249.5-216-311s-135-37.5-309.5-16-217-46.001-325-74.001c-108-28-235 11.5-280.5 111.5s-26 176 5 254.5-9.5 198.001-120 173.501c-110.5-24.501-191-112.5-242.5-159.5s-142-58.5-225.5 47S569.5 1156 572 1245z"/><path d="M489 361.5c-51.17-53.588-32.211-150.07 12-246C527.5 58 549.5.168 549.5.168L2538 0l21.5 21 .5 1419H745.5s-2.4-14.4-18-38c-19.5-29.5-32.248-51.17-133.5-151-121.199-119.5-170.63-217.92-161.5-312.5 18.485-191.5 220.316-249.388 243-349 25.96-114-123-161.5-186.5-228z"/><path d="M0 0h71l2490 .5V1439L0 1440V0z"/><path d="M566 1163.5c105.205 70.63 230.5 215 281 276H73c6-36 30.5-148.5 90-224.5 97.47-124.5 191.5-193.5 403-51.5z"/><path d="M135 198C92.2 238 26.833 321.667-.5 358.5l1 1081h1484c80.24-158 27.02-272.33 6.57-316.27l-.57-1.23c-20-43-105.5-109.5-171.5-193.5s-57-117-22-199 74.5-120 88-189-36-117.5-71.5-151-55-69-77.5-121-13-139-48.5-185.5c-28.4-37.2-110.83-70.167-148.5-82H482.5c-9.167 1.833-40.3 10.6-91.5 31-64 25.5-202.5 116-256 166z"/></g></svg>