<svg xmlns="http://www.w3.org/2000/svg" width="2560" height="1440" fill="#fff" fill-opacity="0.7"><g><path d="M431 1079c-172-20-292 204-286 361h706c-14-193-288.087-345.66-420-361zm1697 145c-182-16.99-417 158-465 215.74h851c-64-84.74-248-202.86-386-215.74z"/><path d="M605 782.999C471.473 865.877 443 1011 455 1127c11.999 116 111.999 252 168 313h968c52-92 43-177 43-177s0-50-26-87c-81.77-116.36-286-173-439-214-212.054-56.825-256-182-302-229-46-46.999-117-40-262 49.999z"/><path d="M1055 1008.5c109.5 41.53 404.18 110.26 628 159.5 100 22 130 164 174 272H-2v-338c21-20 32.905-50.92 115-136 110-114 220.5-268.188 306.5-287 112-24.5 247.963 19.299 292 88.5 105 165 107.5 151.5 343.5 241z"/><path d="M358 975.999C266 1121 264 1284 308 1439.84h900c20.83-122.36 29.8-201.2 6-253.84-31.61-69.9-133.83-116.34-304-147-272-49-246-231.771-378-213-75 10.665-132.758 85-174 149.999z"/><path d="M2369 580c52 60 127 148 193 230v628H582c12-115-1.653-156 0-249 4.001-225 97-340.402 208-405 80.792-47.018 154-16 191 39s155 163.786 205 137 29.26-66.019 18-147c-26-187 53-293 114-347s186.15-93.226 277-69c105 28 122.35 52.64 197 60 74.65 7.36 163-54 288-38s231.1 94.191 289 161z"/><path d="M2349 548c94.91 151.673 160 381 115 584.69-25.46 115.23-78.18 223.31-147.66 306l-1057.34 1c-4-6-49-35-83-105-48.09-99-14-161 34-292 48-130.998-7-212.928-7-326.998 0-133 102.59-281.551 227-344.691C1570 299.949 1731 344 1731 344s64 18.971 253 6c77.1-5.291 263 35 365 198z"/><path d="M1478.57 795.476c-21.33-46.492-7.07-83.569 14.43-100.976 43.5-35.218 93.52-16 121.5 20.5 32.96 43 7.5 105.137-28.5 129-32.25 21.374-80.77 9.592-107.43-48.524zM850 928.5c-12.499-43 2.785-72.983 18.766-85.921 32.332-26.177 69.513-11.893 90.308 15.237C983.571 889.777 979.5 946.126 946.5 968c-23.967 15.887-85.018 0-96.5-39.5zm1207 140.11c53.38-65.99 117.4-138.978 176-110.61 116 70 126 192 85 266s-129 131.52-217.73 89.95c-115.59-54.14-101.21-173.71-43.27-245.34zm-1663 54.13C345.172 1004.76 381.528 902 422 855c31-36 106-93 151-53 33.209 29.519 8 112 34 178 31.738 80.57 51.98 105.18 61 142.74 4.866 20.26 0 66.26-43 92.26-95.232 57.58-204.687-28.68-231-92.26z"/></g></svg>