<svg xmlns="http://www.w3.org/2000/svg" width="2560" height="1440" fill="#fff" fill-opacity="0.7"><g><path d="M525 1365c-14.4-30-1.947-56.81 7.5-65 7.5-6.5 16.5-14.5 41.5-12.5 34.423 2.75 67.5 33.5 74.5 56s-2.5 55.5-35 66-70.5-7-88.5-44.5zm1617.5 45.5c-22 1.2-42.17 20.17-49.5 29.5h111c-16.5-20-34-31-61.5-29.5zM890 1303.5c-9.6 39.6-4 107.83 0 137h432.5c-1.17-16.5 0-46.5-25.5-107.5-23.93-57.23-73.5-98-113-106.5s-112-20-189-17.5-93 45-105 94.5zm608 33.5c24.8 41.6 47.67 86.67 56 104h452c16.8-18.4 31.67-80.33 37-109 22-163-3-242-46-281s-179-26-259-5c-103.29 27.11-205 74-253 131s-18 108 13 160z"/><path d="M1678 1400c-71 0-135.67 27.33-164 41h349c-37-18-106-41-185-41z"/></g></svg>