<svg xmlns="http://www.w3.org/2000/svg" width="2560" height="1440" fill="#fff" fill-opacity="0.7"><g><path d="M508.5 1329.5c-16.8-30.4-6-63.5 7.5-73 40.5-39 100 0 121.5 29 13.716 18.5 31 74-17.5 94s-90.5-12-111.5-50zm328-47c-1.6 42.4 16.333 122.67 25.5 157.5h490c1.5-11.5 1.19-24.56 0-37-4-42-17.47-83.5-41.5-129-37.5-71-100.5-80.5-138.5-86l-2.25-.33c-38.18-5.52-99.43-14.38-158.75-25.17-60.5-11-101-9.5-128.5 7.5s-44 59.5-46 112.5z"/><path d="M740.5 1382.5C681.7 1385.3 633 1422 616 1440h284c-36-33-86-61-159.5-57.5zm713.5-57c11.6 18 56.83 83.83 78 114.5l500.5.5c32-42 74-179 73-301.5s-55-229.5-87-237-91 40.5-149.5 55-108.5-4-137-36.5c-42.27-48.204-52.5-46.5-68.5-43.5s-28.77 31.595-40 55c-12 25-24.5 45-69.5 96.5s-91 86.5-125 147.5 10.5 127 25 149.5z"/><path d="M1433 1358.46c-44 28.54-70 54.54-83 82h677.5c-6.8-7.2-28.5-26.33-38.5-35-53-43-133-95-253-106s-242.76 19.93-303 59zm675 14.54c-29.2 18-35.83 52.17-35.5 67H2225c1.2-20.8-9-40-13.5-45.5-20-28-67-44-103.5-21.5z"/></g></svg>