<svg xmlns="http://www.w3.org/2000/svg" width="2560" height="1440" fill="#fff" fill-opacity="0.7"><g><path d="M2421 546c94.91 151.673 135 388 90 591.69-25.46 115.23-83.18 218.31-152.66 301l-1154.11 1c-4-6-35.23-29.69-69.23-99.69-48.09-99-63.76-122 0-296s11.4-196.718 24-300c20-164 119.23-363 269-447 140.08-78.565 279-73 279-73s135-20 358 50c187.63 58.896 254 109 356 272zM419 998c-163 0-319 212-300 442h764c0-131.01-84-242-266-330-107-60-134-112-198-112z"/><path d="M2124 1135c-183-24-495 162-531 304.74h968V1382c-77.65-90.66-262.09-224.06-437-247z"/><path d="M572.001 758c-175.001 96-157 253-145 369S546 1379 602 1440h1011c9.67-16 33.4-63.2 51-124l.27-.92c21.87-75.55 38.87-134.31 74.73-191.08 36-57 59-93 118-143s120-146 68-170-113 61-148 138-68 105-135 122-116 6-233-54c-93.6-48-161-73.333-183-80-215.23-43.252-239-190.368-323-260-84-69.631-181.374-1.08-330.999 81z"/><path d="M785 706c95.257 175.999 181.909 220 278 262 66.12 28.898 230 90 428 106 187.39 15.14 247.23-135.798 330-106 100 36 60 274 144 472H-2V926s-17.096 17.08 65-68c109.999-114 218.659-246.475 329-278 123-35.143 358.361 62 393 126z"/><path d="M331.001 900c-117 197-99.001 399-50 539.84H1218c26-105.84 55-188.84 30-266.84-26.6-83-141.83-126.34-312-157-307-55.305-171-315-429-268-74.528 13.577-130.269 75-175.999 152z"/><path d="M2468 539c50 55 92 91 92 91v808H487c12-115-1.654-165 0-258 4.622-260 147.448-369.486 242-430 100-64 225-72 281.5-32s64.5 28.046 80.5 25.5c16-2.545 55.1-101.5 89-199.5 55-159 214-230 342-254 52.32-9.811 149 0 286 6 108.57 4.755 194 18 281 30s138 34 201 70 105.27 63 178 143z"/><path d="M1456 810c-28.86-62.9-1.09-110.449 28-134 58.85-47.646 117.46-24.02 155.31 25.362C1683.9 759.537 1636 834.555 1592 873c-38.44 33.58-99.93 15.625-136-63zM794.946 966.656c-26.26-90.338 18.357-155.782 45.572-177.816 67.927-54.995 140.362-34.964 184.052 22.034 51.46 67.146 80.02 189.08 0 242.126-87.57 58.04-205.502-3.36-229.624-86.344zM2046 1058c75.63-93.5 118.4-211.368 177-183 116 70 166.73 231 108 342-58.73 111-142 138.52-230.73 96.95-115.59-54.14-118.58-176.45-54.27-255.95zm-1652 64.74C338.196 1007.89 347.938 896 394 830c74-97 179-110 224-70s-3.619 149.286 14 218c19.58 76.36 26.681 105.93 35.434 142.38l.566 2.36c4.866 20.26-6 74.49-42 96.26-76 45.95-193-16-232-96.26zM1275.5 553c30-17.6 59.5-10.5 74.5 4.5 18 18 16 34 15.5 45s-25.5 86.5-81 100.5-79-29.5-79-63 32.5-65 70-87z"/></g></svg>