<svg xmlns="http://www.w3.org/2000/svg" width="2560" height="1440" fill="#fff" fill-opacity="0.7"><g><path d="M57 1440h888c40-258-32-294-234-392-202-115 10-343-232-358-141 0-317.774 201-403 378-58.147 120.76-60.15 258.25-19 372z"/><path clip-rule="evenodd" d="M171.5 345c-91 54.5-146 97.5-171.5 112.5L-3 694h3v746h2257c-12.67-56.67-39.8-235.8-51-471-14-294-83.33-334.753-155-367.33-61.76-28.073-185.96 7.134-280 36.33-39.95 12.404-87.48 8.979-106 0-33-16-99-104-99-104-35-41-66-75.951-130-90-123-27-156-11-317 0-20.55 5.829-124 0-174.5-37s-113-86.499-173-123c-60-36.5-152-65-219-65-202 0-285.5 77-381 126z"/><path d="M297 825c-18 93-1 253 43 367 30.627 79.35 112.667 196 157 247h1228c97-204 135-276 246-395 94.54-101.353 168-345.001 23-387.001C1815 600 1709 818 1666 887s-135 112.58-208 79c-88-40.48-152-131-53-271 100-133 129-162 86-250-28-36-67-84-174-98-54-16-63-45.001-203-26.001-55 7.465-93 26.002-199 0-74-18.152-131.001-31-195 26.001-57 50.766-7 121-25 176-34.364 105-166 99-254 99-114 9-130.028 130.811-144 203z"/><path d="M186 847c-107.468 238-54 426 20.5 592.84H1316c12.5-62.84 36.72-200.84 13-274.84-30.13-94-132-168-323-208-135-38-161.866-61.293-189-148-12.831-41 0-131-46-170-30-25.435-100.317-28.727-169-39.999-55.748-9.15-119.759-30.508-171-23.001-157 23.001-211.821 197.521-245 271zm1227.5.501c-35.18-76.676.35-150.425 39.74-192.201C1507.66 597.581 1593.5 551 1701 649c77.5 76-36.19 221.434-100.5 283s-143.03 11.346-187-84.499zm647.5 98.762c82.9-119 7-274.863 83-305.263 45-18 87 17.999 87 17.999C2327.5 734 2455 971.992 2372 1114c-63.71 109-193.97 132.55-271.74 88.95-108.26-60.69-103.35-164.69-39.26-256.687z"/><path d="M376.803 1026.36C321 924.741 315.599 834.223 355 753.742c25.375-51.829 51.705-79.845 145.654-87.235 18.132-1.427 36.267-3.639 54.158-6.914C624.542 646.828 680.226 647.227 698 665c65 56.5-19 142-24.197 232.5 0 0-3.803 58 0 123.86 0 38.14-9.5 77.61-45.5 99.37-76 45.96-202.825-5.73-251.5-94.37zM2390 967c56 29.6 137.33 87 171 112v361H1417c-4.67-51.33-5-169.2 31-230 45-76 93-146 95-199s-90-171-117-229-16-131 60-157 173 42 213 95 18 133 29 207 106 69 166 47 135-115 182-160 83-20 112 7 132 109 202 146z"/><path d="M1541 1175c143-24 319-45 382-9 105 60 216 221 258 274H1007c26.67-34.67 105.2-131.6 166-162 76-38 174-70.44 368-103z"/><path d="M1410 0c-187 80-248.68 150.801-304.53 259.012-7.73 12.783-15.08 24.501-21.97 35.488-42.18 67.229-53.5 91.5-53.5 197-16.5 92-56 104-122 143-76.5 35-116.5 82.5-182.5 181.5-63 110-41.5 181.5 25.5 261.5 18.998 22.68 62.819 65.27 103.812 94.23 25.87 18.28 49.42 34.92 62.188 46.27 27 24 42.455 31 76 103.5 40.95 88.5 70 102 112.54 119H2486.5c2.67-2.83 11.6-13.1 26-31.5s38.33-53 48.5-68V349c-32-49-102.5-134.689-192-213.001C2317 90.5 2262.5 46.5 2152.5 0H1410z"/><path d="M2322 82c171 89 188 111 238 148v1209H227.5c-6-52.67-16.8-193-12-333 6-175 67.5-410.5 155.5-473.5s149 21 288-39c110.5-66.5 20.026-168 51.5-272C733.5 245.5 844 204 908 121c40-38 83.913-76.885 167.5-121H2112c55 14 90 27 210 82z"/></g></svg>