<svg xmlns="http://www.w3.org/2000/svg" width="2560" height="1440" fill="#fff" fill-opacity="0.7"><g><path d="M484 1313c-135-5-185 98-204 127.04h440C674 1381 605.605 1317.5 484 1313z"/><path d="M507 1178c-86.84 56.63-77.549 204.87-83 262h706c-16.92-133.08-75-257.18-251-286-161.839-26.5-294.182-26.74-372 24z"/><path d="M441.121 1206.13c-39.249-58.34-9.186-114.92 7.879-132.13 37.863-33 87.044-4.77 140.371 31C670 1159.09 676.462 1240 629 1273c-62 43.11-138.818 6.04-187.879-66.87z"/><path d="M642 1228c19 82 71 169 99.618 212h727.402c23.57-36.53 21.62-120-7.3-174.76C1403.51 1155 1339.04 1094.86 1215 1078c-124.04-16.86-178.07-55.15-314-104-178.069-63.998-206.885-11.136-240 40-33.115 51.14-37.889 132.48-19 214z"/><path d="M941.5 1281c-17 38.5-30.5 116-30.5 158.27l1546 1c-24.64-74.9-45-141.27-83-216.27-44-97-105.88-172.91-154-268-42-83-48-163-82-212s-73.65-64.071-141-53c-146 24-132 46-250 24s-162-124-265-124c-47.27 0-106.54 24.216-112 93-5 63 77 122 112 175s-39 148.96-59 168c-83 79-149.22 122.28-284 157-132 34-170.475 35.8-197.5 97z"/><path d="M1289.12 1161.34c-40.82 112.69 65.31 232.73 123.47 278.66H2165c48.3-62.95 154.63-234.27 140-405-24-280-81-401.218-178-455-101-56-196 8.724-320 20-101.03 9.187-159.16-65.065-251-90-71.43-19.394-193.62 17.248-234.44 114.218-40.82 96.97.99 192.579 23.44 251.782 22.45 59.203-4.86 144.48-55.88 285.34z"/><path d="M2068 1193c36.74-48.37 99-59 144-41 89.05 51.5 69.75 146.1 61.91 169.61-7.84 23.51-64.54 129.24-165.36 84.45-100.81-44.78-86.48-152.6-40.55-213.06zM221.084 1438.65L220 1440l1211-2.32c-139.51-146.39-240.65-194.03-392.95-250.95C885.754 1129.8 685 1168.95 515 1210c-137.477 33.19-248.274 171.62-293.916 228.65z"/></g></svg>