<svg xmlns="http://www.w3.org/2000/svg" width="2560" height="1440" fill="#fff" fill-opacity="0.7"><g><path d="M22 1440h954c17.5-95 93.5-240 77-293.5-9.6-31.14-60.5-32-136.5-58.5-47-19-91.221-40.05-138-64-117.5-60.16-81-184-81-285.5 0-68.5-46.5-96-58.5-105.5-77.5-48.5-160.5-56.923-221-48.5C260 606.5 84 839 20 976.653 12.046 994.573 5.467 1013.26.205 1032.5v345S6 1410 22 1440z"/><path d="M1857 458c-149.46 38.99-122.85-128-174-222C1622.84 125.44 1460.8 47.153 1259.26.007H393C215.585 51.722 69.99 128.674-1 176v1264h2448c-7.33-78-40-316-122-617.999C2216.5 422.404 1995 422 1857 458z"/><path d="M1991 1116c-50.5 58.5-102.5 154.5-126.5 201.5-19.2 37.6-66 98-87 123.5H441c-52.5-58.5-135.5-179.5-177.999-279.5-59.999-141.18-66.404-335.378-44.5-482.5 29.999-201.5 192-398 327.5-503.5C654.401 91.1 842.834 23.667 923.5.5H1287c55.17 20.5 183.8 70.8 257 108 91.5 46.5 103.5 134 92.5 176s-12.5 90.5-10 142l.06 1.242c2.49 51.149 5.16 106.075-30.06 145.258-35.5 39.5-115.5 91.5-157.5 154.5s-46 125.5 9 175 109 13 162-38.5 94.5-172 130-211.5 171.5-108 271-79.5 124.5 152 122 250-91.5 234.5-142 293z"/><path d="M82 877.999C19 1124 92 1318 162 1439.84h1199c12.5-62.84 35.72-201.84 12-275.84-30.13-94-92-162.17-316-243-115-41.5-150-54.5-163-113.5-15.203-69 20.5-164-49-261.5s-151.05-84.481-235-93.501c-36.999-2.981-96-16.5-150.5-19.5-43.6-2.4-94.5 21.334-114.5 33.501-185 94.999-243 349.499-263 411.499zm1322.09-17.237c-34.5-110.5-32.34-143.519 16.91-205.762 81.5-103 179.06-137.001 330-37 109.94 80.092-83.51 265.265-149.94 328.85l-1 .96c-82.47 73.45-158.62 14.905-195.97-87.048zM2057 891.708c87.5-166-84-262.808 15-322.208 53.36-32.014 124.45-9.959 162.09 6.025 17.64 7.495 33.4 18.579 47.18 31.903 121.63 117.568 194.85 305.019 103.23 461.782-63.71 109-206.47 127.1-284.24 83.51C1992 1092.03 2011.5 964 2057 891.708z"/><path d="M376.803 994.184C323.5 916.499 294.299 796.504 313 713.999 330 639 381 584 453.5 584c54 0 85 33 124 24 69.073-15.94 126-33.32 157.5-7 81.047 67.718-23 163-44 263 0 0-21 59.32-17.197 125.184 0 38.136-9.5 77.606-45.5 99.366-76 45.96-198.197-16.68-251.5-94.366zM2368.5 757.501c47.6 43.2 148.5 107.333 193 133.999V1441h-1276c-2.33-19.67-5.6-72.5 0-126.5 9.07-87.5 113-172 135.5-250 26.41-91.541-77.5-201.5-65-358 7.52-94.212 118.5-149.5 196-148s211.5 89 278 106 129.5-28.499 243.5-63.499 235.5 102.5 295 156.5z"/><path d="M913.5 1313.5c-8.4 26.4-35.167 95-47.5 126l1459.5 1c-18.67-39.33-63-131.2-91-184-35-66-154-236.5-209-294.5s-110.5-19.5-161-12.5c-49.86 6.911-95.33-10.547-144.12-29.277l-1.88-.723c-49.5-19-66 23-116.5 76.5s-175 114-299 157-175.5 44.5-264.5 56-114.5 71.5-125 104.5z"/><path d="M1090 0s-45.5 33.5-107 121.5c-25.963 37.151-75.179 115.791-101.5 161-42.5 73 3.661 130.092-7.5 235-5 47-23.354 79-54.5 113.5-41.979 46.5-109.499 114-159 189-63 110-36 223 35.501 299 30.5 30 88.999 90.5 124.999 122.5 26.333 25.17 84.3 82.6 105.5 111 21.2 28.4 39.296 70.83 45.693 88.5l1513.617-.5h44s16.5-14 30.5-38V85s-31.25-35-41.31-46c-21.5-23.5-42-39-42-39H1090z"/><path d="M326.999 296C416.654 172.725 558.667 56.333 630.5.5H2561V1439H42c-10-78-6.5-280.5 7-400.5S92.1 765.063 122 681c34.5-97 84.999-220 204.999-385z"/></g></svg>