<svg xmlns="http://www.w3.org/2000/svg" width="2560" height="1440" fill="#fff" fill-opacity="0.7"><g><path d="M331.999 419.5C150.999 472.5 66.5 605.5 8.5 678L.205 693v747H1030c6-170 194-223.5 160-326-29.36-88.5-161.95-84.69-250-104.5-51.5-11.588-99.5-29.5-119.5-49.5-77.151-77.151-47.338-145.427-30.5-226.499C817 603.5 778.454 532.739 731 498.5c-118.5-85.5-281.5-113.405-399.001-79z"/><path d="M2372 267.5C2306.03 185.551 2191 55 2129 0H1L0 1440h2560l1.5-868c-33-68-92.5-184-189.5-304.5z"/><path d="M315.5 1440c-38-39.17-126.5-149-176.5-275-62.5-157.5-78.5-327-77.5-414.5s1-231.5 64-390C181.743 219 271 81 370 .5h1479c42 30.333 100 85 130.5 175.5 10.17 35.667 37 117 63 157C2075 383 2147 471.5 2178 534c24.8 50 39 98.333 41 116 24.62 217.5.5 281.5-70 407.5-33.48 59.83-72.24 111.5-133 188.5-36.94 46.8-75.3 97.5-108.5 193.5l-1592 .5z"/><path clip-rule="evenodd" d="M1792 517.5c38.99 7.511 103-11.604 138.99-25.385 3.01-1.549 5.97-3.088 8.87-4.595l.01-.006c4.73-2.453 9.29-4.823 13.63-7.014 49.74-25.093 125.66-44.27 172.5-47.5 122.5-5 219.5 47.5 294 184 81 133 64 293-44.5 420-101.5 101-262.5 50.5-303.16-17.5-17.34-29-26.08-89.047-13.68-134.5 6.96-25.501 13.68-50.12 13.68-74.74 0-40.359-18.86-75.618-43.77-100.631-50.19-43.521-117.56-33.846-159.57-20.129-37.72 12.316-74.55 47.743-110.04 81.876-10.61 10.208-21.1 20.3-31.46 29.624-12.38 11.139-23.62 20.576-33.92 29.227-3.68 3.088-7.24 6.076-10.69 9.006-33.25 25.73-65.71 66.611-88.39 103.767-7.84 12.852-17.47 22.901-26.91 30.503-20.85 15.865-46.89 26.353-80.09 23.997C1410 992 1372 906 1353.5 831c-15.27-61.895 3.52-84.97 26.85-113.626 4.94-6.067 10.08-12.385 15.15-19.374 20.21-27.877 31.19-47.74 45.98-74.484 6.43-11.629 13.58-24.56 22.52-40.016 29.5-51 61-71 120-85.5 51.01-12.536 128.55 3.331 183.84 14.645 8.66 1.772 16.78 3.433 24.16 4.855z"/><path d="M423.5 384.5c47.6-24 139.5-16.667 179.5-10C684.5 388.499 748 421 802.5 493s36.5 162.5 0 215-92.5 154.5-106 191.5S671 1019 587 1025s-141.5-56-164-87-46.5-62-104-145.5-61.5-141.5-55.5-221 100.5-157 160-187zm2019 121c59.05 31.492 119 69.5 119 69.5v866H1115c-2.33-19.67-14-73.5 5-136.5 42.22-140 164-160.5 196.5-254.5 44.8-129.578-41.73-226-32.5-341.5 7.52-94.212 80-226 238-253s173 34.5 304.5 26c79.33-5.128 173.5-68.5 295-68.5 144 0 252 55.7 321 92.5z"/><path d="M2464 1229c42 90.4 65.17 178 71.5 210.5H665c1.167-7.17 4.2-26.6 7-47 3.5-25.5 14.5-128 26-206.5s62-175.5 112-201 93.5-6 149 25.5 146.5 73.5 204 73.5 138-33 189.5-97 40-96.5 22.5-139-62.5-105-66-142 6-133.501 111-163.001 171.5 23 262 71.501c90.5 48.5 166.5 25.5 267 0s170.5 0 229.5 53.5 90 179 128 269 105 179 157.5 292z"/><path d="M637.5 332c-27-63-32.5-119 18.5-211.5 26.583-48.214 55.5-92 72.5-120.332L2538 0l21.5 21 .5 1419H815.5s-2.4-14.4-18-38c-19.5-29.5-42.248-65.17-143.5-165-121.199-119.5-153.63-203.92-144.5-298.5C523.159 797 689.466 679.93 737 589.5c41-78-69.775-188.141-99.5-257.5z"/><path d="M35 56.5c13.313-21 36-56 36-56h2490V1439L0 1440V113.5s21.687-36 35-57z"/><path d="M564.5 1243.5c109.6 63.6 188.5 156 214.5 196H125c6-36 26.5-106 86-162.5 98.171-93.22 216.5-113 353.5-33.5z"/><path d="M198.5 306.5C112.9 377.3 30.833 527 .5 593l-1 846.5H1426c30-81.5 44.5-140.5 31.5-246s-111-182.5-193.5-268-92-111-73-147.5 94-76 120-169c25.91-92.67-36.06-115.339-137.91-152.601L1172 456c-102.5-37.5-199.5-104-273.5-186.5s-124-147-278-145.5-315 94-422 182.5z"/></g></svg>