<svg xmlns="http://www.w3.org/2000/svg" width="2560" height="1440" fill="#fff" fill-opacity="0.7"><g><path d="M506.5 1320c-38.4-43.2-25.5-89-7.5-107.5 17.999-18.5 67.5-30 120 19.5s34.5 95 15.5 112-80 30-128-24z"/><path d="M728 1319c-100 9.2-157.667 84.5-174 121h406.5C935 1388 853 1307.5 728 1319z"/><path d="M789 1221.5c-6 54.8 30.5 168.5 49.5 218.5H1375c7.17-15 12.38-65.5-18.5-142.5-39.5-98.5-88.5-128-171-138.5s-117-20.5-235-47.5-154 41.5-161.5 110z"/><path d="M1293 1344c-24.48 28.86-46.5 74-52 95.5l905.5 1c-7.5-9.83-39.4-49.9-107-131.5-84.5-102-157-109-218.5-114.5s-257 14-345 32.5-135.5 61-183 117z"/><path d="M2071.5 1360.5c-18.4 34-7.67 67.17 0 79.5h155c26.5-54-7.5-116.5-49.5-129.5s-82.5 7.5-105.5 50zm-509.34-630.912c-8.5 20.5-37.48 27.574-50 28-117.5 4-121-74-95-107.5s72-36 107.5-13 43.87 77.147 37.5 92.5z"/><path clip-rule="evenodd" d="M2120 1008a644.5 644.5 0 016.96 69.26l.04.24c15 100 15.13 254.5-100.87 459.5h-549c-14.33-20-47.6-66-66-90-2.22-2.9-4.84-6.14-7.74-9.7-24.11-29.74-66.75-82.3-49.31-152.98 3.96-20.35 12.91-51.09 30.42-83.82 21.16-39.55 71.93-104.85 104.37-145.64 8.64-11.16 16.96-21.71 24.55-31.32 11.86-15.04 21.92-27.797 28.58-37.04 24.13-33.491 38.56-91.239 46.64-123.545l.36-1.455c8-32 25.5-71 66.5-71s69.5 14.5 114 65.5 81.5 72.5 139.5 26c14.45-11.582 27.53-23.04 39.58-33.594v-.001c36.32-31.816 63.26-55.412 89.92-49.405 35.5 8 60.5 74 81.5 209z"/></g></svg>