<svg xmlns="http://www.w3.org/2000/svg" width="2560" height="1440" fill="#fff" fill-opacity="0.7"><g><path d="M481.5 1378c-66.4.8-120 42-138.5 62.5h309c-35-35-87.5-63.5-170.5-62.5z"/><path d="M547 1243.5c-55.2 36-78.667 146.33-83.5 197l588.5-.5c-18-87.5-56-214-199.5-237.5s-236.5-4-305.5 41z"/><path d="M461 1242.5c-36.8-54.8-14-100.83 2-117 35.501-31 87-11.61 137 22 61 41 74 118.5 29.5 149.5S507 1311 461 1242.5zm157.5 67c-105.966 32.46-200.5 99.33-234 130.5l888-.5c-81-73-154.5-121.61-248-154.5-125.5-44.15-295-9.5-406 24.5z"/><path d="M697.5 1252.5c15.2 57.6 62 149.33 83.5 188h648c21-32.5 16-102.5-6.5-155.5-46.9-110.47-120-166.5-230.5-181.5s-147.5-37.5-264.5-79.5-183-7-212.5 38.5-36.5 118-17.5 190z"/><path d="M1105 1277c-48.8 32.8-72.33 122.33-78 163l1323 1c-51-155-119-289-244-453-85.01-111.536-109.58-102.17-150.93-86.409L1954 902c-42 16-83 37-150 29s-111-86-155-109-43 9-40 90-92 145-193 205-250 119-311 160z"/><path d="M2079 1233c32.8-43.2 90.5-40.5 123-31 79.5 46 63 133 56 154s-56 112-146 72-74-141-33-195z"/><path d="M1322 1168c-40 110.4 64 228 121 273h676c47.33-61.67 140.8-230.6 136-413-6-228-68-354-144-402s-224 17-323 26-177-84-247-103-161 8-201 103 34 161 56 219-24 159-74 297z"/></g></svg>